HIERARCHY
ROOT root
{
	OFFSET	0	13.1	24.9
	CHANNELS 6  Xposition Yposition Zposition Xrotation Yrotation Zrotation
	JOINT spine_1
	{
		OFFSET	0	9.99999	0
		CHANNELS 3  Xrotation Yrotation Zrotation
		JOINT spine_2
		{
			OFFSET	0	112	-10
			CHANNELS 3  Xrotation Yrotation Zrotation
			JOINT spine_3
			{
				OFFSET	0	206.5	19.3
				CHANNELS 3  Xrotation Yrotation Zrotation
				JOINT spine_4
				{
					OFFSET	0	110.4	14.6
					CHANNELS 3  Xrotation Yrotation Zrotation
					JOINT neck_1
					{
						OFFSET	0	71.8	-50.3
						CHANNELS 3  Xrotation Yrotation Zrotation
						JOINT neck_2
						{
							OFFSET	0	86.2	-25.8
							CHANNELS 3  Xrotation Yrotation Zrotation
							JOINT head_ee
							{
								OFFSET	0	179.8	-8.7
								CHANNELS 3  Xrotation Yrotation Zrotation
								End Site
								{
									OFFSET	1	0	0
								}
							}
						}
					}
					JOINT left_clavicle
					{
						OFFSET	-43.2	22.4	-70.8
						CHANNELS 3  Xrotation Yrotation Zrotation
						JOINT left_shoulder
						{
							OFFSET	-93.9	-5.79999	48.7
							CHANNELS 3  Xrotation Yrotation Zrotation
							JOINT left_elbow
							{
								OFFSET	-291.4	-30.8	15.2
								CHANNELS 3  Xrotation Yrotation Zrotation
								JOINT left_lowarm_twist
								{
									OFFSET	-110.7	-3.89999	13.6
									CHANNELS 3  Xrotation Yrotation Zrotation
									JOINT left_hand
									{
										OFFSET	-110.7	-3.89999	13.6
										CHANNELS 3  Xrotation Yrotation Zrotation
										JOINT left_ee
										{
											OFFSET	-80.8	-5.10001	12.1
											CHANNELS 3  Xrotation Yrotation Zrotation
											End Site
											{
												OFFSET	1	0	0
											}
										}
									}
								}
							}
						}
					}
					JOINT right_clavicle
					{
						OFFSET	43.2	22.4	-70.8
						CHANNELS 3  Xrotation Yrotation Zrotation
						JOINT right_shoulder
						{
							OFFSET	93.9	-5.79999	48.7
							CHANNELS 3  Xrotation Yrotation Zrotation
							JOINT right_elbow
							{
								OFFSET	291.4	-30.8	15.2
								CHANNELS 3  Xrotation Yrotation Zrotation
								JOINT right_lowarm_twist
								{
									OFFSET	110.7	-3.89999	13.6
									CHANNELS 3  Xrotation Yrotation Zrotation
									JOINT right_hand
									{
										OFFSET	110.7	-3.89999	13.6
										CHANNELS 3  Xrotation Yrotation Zrotation
										JOINT right_ee
										{
											OFFSET	80.8	-5.10001	12.1
											CHANNELS 3  Xrotation Yrotation Zrotation
											End Site
											{
												OFFSET	1	0	0
											}
										}
									}
								}
							}
						}
					}
				}
			}
		}
	}
	JOINT left_hip
	{
		OFFSET	-82.8	-127.5	0.300001
		CHANNELS 3  Xrotation Yrotation Zrotation
		JOINT left_knee
		{
			OFFSET	-28.2	-396.7	2.2
			CHANNELS 3  Xrotation Yrotation Zrotation
			JOINT left_ankle
			{
				OFFSET	-11.7	-411.3	35.4
				CHANNELS 3  Xrotation Yrotation Zrotation
				JOINT left_toes
				{
					OFFSET	0	-60	-88.6
					CHANNELS 3  Xrotation Yrotation Zrotation
					JOINT left_foot_ee
					{
						OFFSET	-22.5	-16.5	-42.2
						CHANNELS 3  Xrotation Yrotation Zrotation
						End Site
						{
							OFFSET	1	0	0
						}
					}
				}
			}
		}
	}
	JOINT right_hip
	{
		OFFSET	82.8	-127.5	0.300001
		CHANNELS 3  Xrotation Yrotation Zrotation
		JOINT right_knee
		{
			OFFSET	28.2	-396.7	2.2
			CHANNELS 3  Xrotation Yrotation Zrotation
			JOINT right_ankle
			{
				OFFSET	11.7	-411.3	35.4
				CHANNELS 3  Xrotation Yrotation Zrotation
				JOINT right_toes
				{
					OFFSET	0	-60	-88.6
					CHANNELS 3  Xrotation Yrotation Zrotation
					JOINT right_foot_ee
					{
						OFFSET	22.5	-16.5	-42.2
						CHANNELS 3  Xrotation Yrotation Zrotation
						End Site
						{
							OFFSET	1	0	0
						}
					}
				}
			}
		}
	}
}
MOTION
Frames: 13
Frame Time: 0.02
1372.05 701.618 -1475.22 -9.49002843865 24.6515379482 1.83171032449 -0.562882 0.736433 1.07845 -0.562482 0.666321 1.12312 -0.548732 0.403624 1.24195 -0.550391 0.594688 1.16264 11.7059 3.51938 -0.464088 11.776 6.10216 -0.599361 -0.0 0.0 -0.0 -0.436486 0.563011 -0.770578 18.0108 -13.962 78.998 1.54284 -37.3872 0.522057 20.3417 0.262718 -2.57156 5.00774 -11.7034 30.0669 -0.0 0.0 -0.0 8.39448 22.7169 -15.6124 -56.104 70.8695 -45.9406 0.548034 15.1887 -0.073069 9.35821 -0.234526 1.17109 2.90332 24.9914 -8.27305 0.0 0.0 0.0 -5.23361 18.3223 9.6746 -15.9244 0.321905 2.41471 31.9531 -2.19502 -4.1344 17.0219 -0.0 -0.0 -0.0 0.0 -0.0 43.381 23.99 -6.03924 -4.40141 -0.156031 -0.657298 -18.1305 2.42015 -2.7758 -10.9807 0.0 0.0 0.0 0.0 0.0 
1352.17724628 697.795 -1512.15982161 -10.9615008121 27.8638662643 3.77220427408 -0.0594718 0.672761 0.954585 -0.0591723 0.610658 0.995456 -0.0481004 0.386958 1.10185 -0.0493633 0.55611 1.02692 11.294 4.6708 -1.52378 11.4625 8.9687 -1.91318 -0.0 0.0 -0.0 -0.787314 3.0117 -1.11688 14.5825 -15.8466 78.5177 1.45924 -35.8596 0.472181 20.3866 0.262282 -2.57728 5.08871 -14.2709 29.2716 -0.0 0.0 -0.0 9.14866 27.7438 -16.7753 -62.1553 68.7664 -38.364 0.542674 15.047 -0.0716713 8.74563 -0.225056 1.09342 2.8073 25.1139 -7.58506 0.0 0.0 0.0 -2.85997 17.6664 9.29551 -19.829 0.297635 3.01319 28.8928 -4.03727 -3.82984 17.5579 -0.0 -0.0 -0.0 0.0 -0.0 42.2127 24.2284 -6.38145 -5.33922 -0.182717 -0.798746 -20.4277 3.37243 -3.14086 -10.4172 0.0 0.0 0.0 0.0 0.0 
1352.51779132 697.795 -1512.34101272 -10.9092334638 27.3465248998 3.65940870862 -0.0594718 0.672761 0.954585 -0.0591723 0.610658 0.995456 -0.0481004 0.386958 1.10185 -0.0493633 0.55611 1.02692 11.294 4.6708 -1.52378 11.4625 8.9687 -1.91318 -0.0 0.0 -0.0 -0.787314 3.0117 -1.11688 14.5825 -15.8466 78.5177 1.45924 -35.8596 0.472181 20.3866 0.262282 -2.57728 5.08871 -14.2709 29.2716 -0.0 0.0 -0.0 9.14866 27.7438 -16.7753 -62.1553 68.7664 -38.364 0.542674 15.047 -0.0716713 8.74563 -0.225056 1.09342 2.8073 25.1139 -7.58506 0.0 0.0 0.0 -2.85997 17.6664 9.29551 -19.829 0.297635 3.01319 28.8928 -4.03727 -3.82984 17.5579 -0.0 -0.0 -0.0 0.0 -0.0 42.2127 24.2284 -6.38145 -5.33922 -0.182717 -0.798746 -20.4277 3.37243 -3.14086 -10.4172 0.0 0.0 0.0 0.0 0.0 
1352.71500076 697.795 -1512.44411269 -10.8797115374 27.0480360219 3.59481740598 -0.0594718 0.672761 0.954585 -0.0591723 0.610658 0.995456 -0.0481004 0.386958 1.10185 -0.0493633 0.55611 1.02692 11.294 4.6708 -1.52378 11.4625 8.9687 -1.91318 -0.0 0.0 -0.0 -0.787314 3.0117 -1.11688 14.5825 -15.8466 78.5177 1.45924 -35.8596 0.472181 20.3866 0.262282 -2.57728 5.08871 -14.2709 29.2716 -0.0 0.0 -0.0 9.14866 27.7438 -16.7753 -62.1553 68.7664 -38.364 0.542674 15.047 -0.0716713 8.74563 -0.225056 1.09342 2.8073 25.1139 -7.58506 0.0 0.0 0.0 -2.85997 17.6664 9.29551 -19.829 0.297635 3.01319 28.8928 -4.03727 -3.82984 17.5579 -0.0 -0.0 -0.0 0.0 -0.0 42.2127 24.2284 -6.38145 -5.33922 -0.182717 -0.798746 -20.4277 3.37243 -3.14086 -10.4172 0.0 0.0 0.0 0.0 0.0 
1279.81382256 717.006 -1594.56849566 -12.3902612627 31.1009351445 6.07143747769 0.65905 0.439965 0.234389 0.65898 0.424159 0.26191 0.660948 0.363602 0.34103 0.661023 0.412898 0.279326 9.3006 6.56615 -0.850189 9.52828 11.6123 -0.972516 -0.0 0.0 -0.0 -1.29648 7.60808 -1.40408 7.81821 -18.8012 80.984 0.984762 -26.0037 0.227389 21.0788 0.254992 -2.6654 4.83016 -19.6543 24.2774 -0.0 0.0 -0.0 10.2846 26.9856 -19.3926 -67.6084 68.3531 -30.3422 0.558179 15.4566 -0.0757501 5.06903 -0.150817 0.629712 2.49585 23.8106 -6.2033 0.0 0.0 0.0 1.847 13.6926 6.51114 -24.0452 0.225727 3.65602 21.1601 -3.84741 -2.92572 18.063 -0.0 -0.0 -0.0 0.0 -0.0 38.1571 24.1197 -6.84981 -5.92446 -0.198195 -0.887225 -14.4869 8.76488 -2.2759 -10.3639 0.0 0.0 0.0 0.0 0.0 
1281.08874027 717.006 -1595.54300309 -12.3125235907 30.5054865363 5.91963518289 0.65905 0.439965 0.234389 0.65898 0.424159 0.26191 0.660948 0.363602 0.34103 0.661023 0.412898 0.279326 9.3006 6.56615 -0.850189 9.52828 11.6123 -0.972516 -0.0 0.0 -0.0 -1.29648 7.60808 -1.40408 7.81821 -18.8012 80.984 0.984762 -26.0037 0.227389 21.0788 0.254992 -2.6654 4.83016 -19.6543 24.2774 -0.0 0.0 -0.0 10.2846 26.9856 -19.3926 -67.6084 68.3531 -30.3422 0.558179 15.4566 -0.0757501 5.06903 -0.150817 0.629712 2.49585 23.8106 -6.2033 0.0 0.0 0.0 1.847 13.6926 6.51114 -24.0452 0.225727 3.65602 21.1601 -3.84741 -2.92572 18.063 -0.0 -0.0 -0.0 0.0 -0.0 38.1571 24.1197 -6.84981 -5.92446 -0.198195 -0.887225 -14.4869 8.76488 -2.2759 -10.3639 0.0 0.0 0.0 0.0 0.0 
1263.89235096 715.569 -1608.18941324 -12.8097890009 30.1735291515 6.06495140204 0.948105 0.475776 0.484526 0.948126 0.44398 0.513818 0.952201 0.335944 0.590142 0.951967 0.424929 0.529682 9.24887 7.26985 -1.68901 9.58004 13.5427 -1.99021 -0.0 0.0 -0.0 -1.40117 9.19191 -1.35435 5.28419 -19.8256 80.1796 0.724111 -19.7331 0.125944 21.8293 0.245885 -2.76083 4.5215 -21.4881 21.036 -0.0 0.0 -0.0 10.7193 26.4666 -20.4268 -71.1519 67.9473 -24.7352 0.646437 17.7565 -0.100979 3.79505 -0.118168 0.470251 2.43973 23.7827 -5.85017 0.0 0.0 0.0 6.85864 11.9313 3.04326 -35.2405 -0.192058 5.3206 24.1838 -3.13389 -3.28393 20.3283 -0.0 -0.0 -0.0 0.0 -0.0 36.9315 23.6952 -7.71105 -5.72467 -0.193013 -0.857003 -8.28597 9.85538 -1.2996 -11.5336 0.0 0.0 0.0 0.0 0.0 
1239.6176075 719.743 -1627.80294989 -11.156005206 30.6183450686 6.02493258579 1.29635 0.468542 0.508401 1.29639 0.435242 0.537185 1.30056 0.326553 0.609397 1.30029 0.418696 0.550178 9.24279 6.72554 -3.62312 9.68754 14.3975 -4.34943 -0.0 0.0 -0.0 -1.93894 10.8281 -2.02916 2.69387 -20.7872 80.0937 0.553218 -15.3257 0.0744335 22.7152 0.233528 -2.87332 3.91481 -21.1998 17.0097 -0.0 0.0 -0.0 10.1055 26.6905 -19.0246 -74.6755 66.538 -19.3473 0.736342 20.04 -0.130104 2.57061 -0.0834527 0.317699 2.63714 25.6635 -6.20334 0.0 0.0 0.0 11.1772 11.6093 2.09198 -43.075 -0.673894 6.4233 23.0288 -2.25926 -3.13838 21.6038 -0.0 -0.0 -0.0 0.0 -0.0 33.0684 21.4636 -8.25913 -5.59989 -0.189723 -0.838136 -2.86259 10.2342 -0.445241 -10.8767 0.0 0.0 0.0 0.0 0.0 
1244.92132865 719.743 -1632.24928422 -10.941815503 28.6919321166 5.59209503712 1.29635 0.468542 0.508401 1.29639 0.435242 0.537185 1.30056 0.326553 0.609397 1.30029 0.418696 0.550178 9.24279 6.72554 -3.62312 9.68754 14.3975 -4.34943 -0.0 0.0 -0.0 -1.93894 10.8281 -2.02916 2.69387 -20.7872 80.0937 0.553218 -15.3257 0.0744335 22.7152 0.233528 -2.87332 3.91481 -21.1998 17.0097 -0.0 0.0 -0.0 10.1055 26.6905 -19.0246 -74.6755 66.538 -19.3473 0.736342 20.04 -0.130104 2.57061 -0.0834527 0.317699 2.63714 25.6635 -6.20334 0.0 0.0 0.0 11.1772 11.6093 2.09198 -43.075 -0.673894 6.4233 23.0288 -2.25926 -3.13838 21.6038 -0.0 -0.0 -0.0 0.0 -0.0 33.0684 21.4636 -8.25913 -5.59989 -0.189723 -0.838136 -2.86259 10.2342 -0.445241 -10.8767 0.0 0.0 0.0 0.0 0.0 
1236.21562139 713.505 -1646.1459106 -10.9539529018 28.9375799144 6.67678612694 1.67544 0.443925 0.460762 1.67547 0.413707 0.488076 1.67905 0.3183 0.555028 1.67885 0.40196 0.497794 8.64632 6.39031 -4.91631 9.1711 15.0513 -5.85434 -0.0 0.0 -0.0 -2.98042 12.0197 -3.5925 -0.0218549 -22.2029 78.8276 0.43851 -12.2559 0.0470796 23.3799 0.223116 -2.95758 3.51779 -20.9647 14.4337 -0.0 0.0 -0.0 9.69586 25.1673 -18.2709 -75.9362 65.5757 -16.6219 0.802154 21.671 -0.153536 1.7187 -0.0573779 0.212007 2.7043 26.9884 -5.96823 0.0 0.0 0.0 13.4739 11.4952 1.51069 -48.7992 -1.11921 7.18292 22.2024 -1.87553 -3.03553 22.6602 -0.0 -0.0 -0.0 0.0 -0.0 31.3556 19.7244 -9.20693 -4.62608 -0.162635 -0.691145 0.936172 9.4091 0.14355 -10.0675 0.0 0.0 0.0 0.0 0.0 
1164.35036505 734.236 -1703.8350101 -13.1946379594 30.1220979884 9.09438586279 2.44449 0.400176 0.17905 2.44442 0.387971 0.204151 2.44583 0.348093 0.266517 2.44594 0.385815 0.208197 4.19643 6.42857 -6.5623 4.7535 16.7544 -7.14358 -0.0 0.0 -0.0 -3.99501 14.3579 -4.80858 -3.2884 -25.5352 78.9234 0.32153 -9.05005 0.0254463 24.4603 0.204105 -3.09428 2.68893 -20.0048 9.34275 -0.0 0.0 -0.0 10.6797 21.9566 -20.7783 -72.8621 65.4702 -11.5758 0.889447 23.7783 -0.187264 0.269463 -0.00941622 0.0331259 2.69867 28.8128 -5.00283 0.0 0.0 0.0 24.6087 9.85535 -2.23493 -58.6691 -2.058 8.37719 20.4041 -1.2444 -2.8102 23.8621 -0.0 -0.0 -0.0 0.0 -0.0 26.0158 14.742 -9.52523 -3.00041 -0.111857 -0.446829 8.29372 8.09499 1.23394 -8.17989 0.0 0.0 0.0 0.0 0.0 
1175.92662305 734.236 -1713.84016305 -12.8438988366 27.3564736711 8.36515282551 2.44449 0.400176 0.17905 2.44442 0.387971 0.204151 2.44583 0.348093 0.266517 2.44594 0.385815 0.208197 4.19643 6.42857 -6.5623 4.7535 16.7544 -7.14358 -0.0 0.0 -0.0 -3.99501 14.3579 -4.80858 -3.2884 -25.5352 78.9234 0.32153 -9.05005 0.0254463 24.4603 0.204105 -3.09428 2.68893 -20.0048 9.34275 -0.0 0.0 -0.0 10.6797 21.9566 -20.7783 -72.8621 65.4702 -11.5758 0.889447 23.7783 -0.187264 0.269463 -0.00941622 0.0331259 2.69867 28.8128 -5.00283 0.0 0.0 0.0 24.6087 9.85535 -2.23493 -58.6691 -2.058 8.37719 20.4041 -1.2444 -2.8102 23.8621 -0.0 -0.0 -0.0 0.0 -0.0 26.0158 14.742 -9.52523 -3.00041 -0.111857 -0.446829 8.29372 8.09499 1.23394 -8.17989 0.0 0.0 0.0 0.0 0.0 
1162.51328567 740.196 -1746.56852021 -12.3262262583 23.079055503 7.43454416771 2.74807 0.366877 -0.0988664 2.74799 0.372424 -0.0753204 2.74752 0.379721 -0.0135796 2.74771 0.372811 -0.07338 2.5352 6.62862 -6.66154 3.0566 17.2187 -6.96884 -0.0 0.0 -0.0 -4.13716 15.0623 -4.88529 -3.84759 -26.3019 79.6137 0.317413 -8.93605 0.0248028 24.5369 0.202661 -3.10395 2.53652 -19.7644 8.4404 -0.0 0.0 -0.0 10.8602 21.5259 -21.2218 -71.7613 64.773 -9.69622 0.882559 23.6144 -0.184495 0.0798013 -0.00280472 0.00980568 2.65022 28.8557 -4.67362 0.0 0.0 0.0 28.273 8.7613 -5.20544 -60.3464 -2.2375 8.5635 20.0791 -1.15439 -2.76918 23.8895 -0.0 -0.0 -0.0 0.0 -0.0 23.9276 13.6557 -8.79776 -3.61213 -0.131778 -0.538596 9.43398 7.79392 1.39567 -7.82357 0.0 0.0 0.0 0.0 0.0 
